<svg id="Layer_7" data-name="Layer 7" xmlns="http://www.w3.org/2000/svg" viewBox="0 0 370 50">
  <title>logoM</title>
  <g>
    <path d="M13.5,37.7H9.4V23.6h2v-2H39.5v2h2V37.7H37.4v-12H27.5v12H23.4v-12H13.5Z" style="fill: #fff"/>
    <path d="M45.4,37.7V21.6H67.5v2h2V35.7h-2v2Zm4.1-12v7.9H65.4V25.7Z" style="fill: #fff"/>
    <path d="M77.5,31.7v1.9h20v4.1H75.4v-2h-2V23.6h2v-2H97.5v4.1h-20v1.9h20v4.1Z" style="fill: #fff"/>
    <path d="M103.4,33.7h-2V21.6h4.1v10h2v2h11.9v-2h2v-10h4.1V33.7h-2v2h-2v2H105.4v-2h-2Z" style="fill: #fff"/>
    <path d="M133.5,31.7v1.9h20v4.1H131.4v-2h-2V23.6h2v-2h22.1v4.1h-20v1.9h20v4.1Z" style="fill: #fff"/>
    <path d="M159.4,37.7v-2h-2V21.6h4.1v12h20v4.1Z" style="fill: #fff"/>
    <path d="M187.4,37.7v-2h-2V23.6h2v-2h20.1v2h2V35.7h-2v2Zm2.1-12v7.9h15.9V25.7Z" style="fill: #fff"/>
    <path d="M217.5,37.7h-4.1V21.6h22.1v2h2v8.1h-2v2h-18Zm0-12v3.9h15.9V25.7Z" style="fill: #fff"/>
    <path d="M245.5,37.7h-4.1V23.6h2v-2h28.1v2h2V37.7h-4.1v-12h-9.9v12h-4.1v-12h-9.9Z" style="fill: #fff"/>
    <path d="M281.5,31.7v1.9h20v4.1H279.4v-2h-2V23.6h2v-2h22.1v4.1h-20v1.9h20v4.1Z" style="fill: #fff"/>
    <path d="M309.5,37.7h-4.1V23.6h2v-2h20.1v2h2V37.7h-4.1v-12H309.5Z" style="fill: #fff"/>
    <path d="M343.4,25.7h-10V21.6h24.1v4.1h-10v12h-4.1Z" style="fill: #fff"/>
  </g>
  <path d="M12.1,43a9.3,9.3,0,0,1,6.3-3.6,14.1,14.1,0,0,1,7.3,1.2,14.9,14.9,0,0,0,3.3.9l.8.2h2.4a8.6,8.6,0,0,0,6.1-2.1h.2a6.5,6.5,0,0,1-2.4,2.9,7.6,7.6,0,0,1-3.7,1.2A13.5,13.5,0,0,1,25,42.3a12.8,12.8,0,0,0-6.5-1.7,8.9,8.9,0,0,0-6.2,2.6Z" style="fill: #fff"/>
  <path d="M23.9,25.8a49.1,49.1,0,0,1-5.3-1.4,19.4,19.4,0,0,1-5.2-2.4l-.6-.5-.6-.6a3.2,3.2,0,0,1-.8-1.9,3.2,3.2,0,0,1,.6-2,4.6,4.6,0,0,1,1.2-1.2,13.5,13.5,0,0,1,2.5-1.5L18,13.1a17.4,17.4,0,0,0,4.5-2.4A2.7,2.7,0,0,0,23.6,9a1.5,1.5,0,0,0-.4-.9l-.9-.8a19.3,19.3,0,0,0-4.8-2L15,4.7l-2.6-.6,2.6.3,2.6.4a19.9,19.9,0,0,1,5.2,1.7,8.5,8.5,0,0,1,1.2.9A2.5,2.5,0,0,1,24.7,9a1.9,1.9,0,0,1-.1.9,2.8,2.8,0,0,1-.3.8,5.8,5.8,0,0,1-.9,1.2,18.7,18.7,0,0,1-4.6,3L16.5,16a11.5,11.5,0,0,0-1.9,1.4c-.6.5-.9,1.1-.8,1.3a2.3,2.3,0,0,0,1.1,1,17,17,0,0,0,4.6,1.6l5,.9Z" style="fill: #fff"/>
  <path d="M27.4,22.2l5-.9A17,17,0,0,0,37,19.7a2.3,2.3,0,0,0,1.1-1c.1-.2-.1-.8-.8-1.3A11.5,11.5,0,0,0,35.4,16l-2.3-1.2a18.7,18.7,0,0,1-4.6-3,5.8,5.8,0,0,1-.9-1.2,2.8,2.8,0,0,1-.3-.8,1.9,1.9,0,0,1-.1-.9,2.5,2.5,0,0,1,.7-1.5,8.5,8.5,0,0,1,1.2-.9A19.9,19.9,0,0,1,34.2,5l2.6-.4,2.6-.3-2.6.6-2.6.7a19.3,19.3,0,0,0-4.8,2l-.9.8a1.5,1.5,0,0,0-.4.9,2.7,2.7,0,0,0,1.1,1.7,17.4,17.4,0,0,0,4.5,2.4l2.5,1.1a13.5,13.5,0,0,1,2.5,1.5A4.6,4.6,0,0,1,40,16.9a3.2,3.2,0,0,1,.6,2,3.2,3.2,0,0,1-.8,1.9l-.6.6-.6.5a19.5,19.5,0,0,1-5.2,2.4A49.1,49.1,0,0,1,28,25.8Z" style="fill: #fff"/>
</svg>
